<svg width="139" height="20" viewBox="0 0 139 20" fill="none" xmlns="http://www.w3.org/2000/svg">
<g clip-path="url(#clip0_260_2)">
<path d="M21.348 1.516V19H17.772V8.944C17.772 8.712 17.776 8.46 17.784 8.188C17.8 7.916 17.824 7.64 17.856 7.36L13.212 16.348C13.068 16.628 12.872 16.84 12.624 16.984C12.384 17.128 12.108 17.2 11.796 17.2H11.244C10.932 17.2 10.652 17.128 10.404 16.984C10.164 16.84 9.972 16.628 9.828 16.348L5.184 7.336C5.208 7.624 5.228 7.908 5.244 8.188C5.26 8.46 5.268 8.712 5.268 8.944V19H1.692V1.516H4.788C4.964 1.516 5.116 1.52 5.244 1.528C5.38 1.536 5.5 1.56 5.604 1.6C5.708 1.64 5.8 1.704 5.88 1.792C5.968 1.872 6.052 1.988 6.132 2.14L10.632 11.008C10.792 11.312 10.944 11.628 11.088 11.956C11.24 12.284 11.384 12.62 11.52 12.964C11.656 12.612 11.796 12.268 11.94 11.932C12.092 11.596 12.252 11.276 12.42 10.972L16.908 2.14C16.988 1.988 17.068 1.872 17.148 1.792C17.236 1.704 17.332 1.64 17.436 1.6C17.54 1.56 17.656 1.536 17.784 1.528C17.92 1.52 18.076 1.516 18.252 1.516H21.348ZM37.2951 4.732H32.3751V19H28.3191V4.732H23.3991V1.516H37.2951V4.732ZM45.1624 12.664C45.1624 13.64 45.0384 14.528 44.7904 15.328C44.5504 16.128 44.1824 16.816 43.6864 17.392C43.1984 17.96 42.5824 18.404 41.8384 18.724C41.0944 19.036 40.2184 19.192 39.2104 19.192C38.7544 19.192 38.3024 19.168 37.8544 19.12C37.4144 19.072 36.9544 18.992 36.4744 18.88L36.6904 16.516C36.7144 16.308 36.7984 16.14 36.9424 16.012C37.0864 15.884 37.2904 15.82 37.5544 15.82C37.6904 15.82 37.8584 15.844 38.0584 15.892C38.2584 15.932 38.4984 15.952 38.7784 15.952C39.1704 15.952 39.5104 15.9 39.7984 15.796C40.0944 15.684 40.3384 15.504 40.5304 15.256C40.7224 15 40.8664 14.668 40.9624 14.26C41.0584 13.852 41.1064 13.348 41.1064 12.748V1.516H45.1624V12.664ZM53.3319 6.364C54.2759 6.364 55.1359 6.512 55.9119 6.808C56.6879 7.104 57.3519 7.528 57.9039 8.08C58.4639 8.632 58.8959 9.304 59.1999 10.096C59.5119 10.88 59.6679 11.764 59.6679 12.748C59.6679 13.74 59.5119 14.636 59.1999 15.436C58.8959 16.228 58.4639 16.904 57.9039 17.464C57.3519 18.016 56.6879 18.444 55.9119 18.748C55.1359 19.044 54.2759 19.192 53.3319 19.192C52.3799 19.192 51.5119 19.044 50.7279 18.748C49.9519 18.444 49.2799 18.016 48.7119 17.464C48.1519 16.904 47.7159 16.228 47.4039 15.436C47.0999 14.636 46.9479 13.74 46.9479 12.748C46.9479 11.764 47.0999 10.88 47.4039 10.096C47.7159 9.304 48.1519 8.632 48.7119 8.08C49.2799 7.528 49.9519 7.104 50.7279 6.808C51.5119 6.512 52.3799 6.364 53.3319 6.364ZM53.3319 16.432C54.1879 16.432 54.8159 16.132 55.2159 15.532C55.6239 14.924 55.8279 14.004 55.8279 12.772C55.8279 11.54 55.6239 10.624 55.2159 10.024C54.8159 9.424 54.1879 9.124 53.3319 9.124C52.4519 9.124 51.8079 9.424 51.3999 10.024C50.9919 10.624 50.7879 11.54 50.7879 12.772C50.7879 14.004 50.9919 14.924 51.3999 15.532C51.8079 16.132 52.4519 16.432 53.3319 16.432ZM72.7013 6.556V19H70.3973C69.9333 19 69.6293 18.792 69.4853 18.376L69.2693 17.656C69.0293 17.888 68.7813 18.1 68.5253 18.292C68.2693 18.476 67.9933 18.636 67.6973 18.772C67.4093 18.9 67.0933 19 66.7493 19.072C66.4133 19.152 66.0453 19.192 65.6453 19.192C64.9653 19.192 64.3613 19.076 63.8333 18.844C63.3133 18.604 62.8733 18.272 62.5133 17.848C62.1533 17.424 61.8813 16.924 61.6973 16.348C61.5133 15.772 61.4213 15.14 61.4213 14.452V6.556H65.1413V14.452C65.1413 15.068 65.2813 15.544 65.5613 15.88C65.8413 16.216 66.2533 16.384 66.7973 16.384C67.2053 16.384 67.5853 16.3 67.9373 16.132C68.2973 15.956 68.6453 15.72 68.9813 15.424V6.556H72.7013ZM78.7088 8.476C79.0928 7.804 79.5328 7.276 80.0287 6.892C80.5328 6.508 81.1088 6.316 81.7568 6.316C82.3168 6.316 82.7728 6.448 83.1248 6.712L82.8848 9.448C82.8448 9.624 82.7768 9.744 82.6808 9.808C82.5928 9.872 82.4688 9.904 82.3088 9.904C82.2448 9.904 82.1608 9.9 82.0568 9.892C81.9528 9.884 81.8448 9.876 81.7328 9.868C81.6208 9.852 81.5048 9.84 81.3848 9.832C81.2728 9.816 81.1688 9.808 81.0728 9.808C80.5288 9.808 80.0928 9.952 79.7648 10.24C79.4448 10.528 79.1728 10.928 78.9488 11.44V19H75.2288V6.556H77.4368C77.6208 6.556 77.7728 6.572 77.8928 6.604C78.0208 6.636 78.1248 6.688 78.2048 6.76C78.2928 6.824 78.3568 6.912 78.3968 7.024C78.4448 7.136 78.4848 7.272 78.5168 7.432L78.7088 8.476ZM87.8248 7.9C88.0648 7.676 88.3128 7.468 88.5688 7.276C88.8248 7.084 89.0968 6.924 89.3848 6.796C89.6808 6.66 89.9968 6.556 90.3328 6.484C90.6768 6.404 91.0488 6.364 91.4488 6.364C92.1288 6.364 92.7288 6.484 93.2488 6.724C93.7768 6.956 94.2208 7.284 94.5808 7.708C94.9408 8.124 95.2128 8.624 95.3968 9.208C95.5808 9.784 95.6728 10.412 95.6728 11.092V19H91.9528V11.092C91.9528 10.484 91.8128 10.012 91.5328 9.676C91.2528 9.332 90.8408 9.16 90.2968 9.16C89.8888 9.16 89.5048 9.248 89.1448 9.424C88.7928 9.592 88.4488 9.824 88.1128 10.12V19H84.3928V6.556H86.6968C87.1608 6.556 87.4648 6.764 87.6088 7.18L87.8248 7.9ZM104.5 13.936C103.756 13.968 103.144 14.032 102.664 14.128C102.184 14.224 101.804 14.344 101.524 14.488C101.244 14.632 101.048 14.796 100.936 14.98C100.832 15.164 100.78 15.364 100.78 15.58C100.78 16.004 100.896 16.304 101.128 16.48C101.36 16.648 101.7 16.732 102.148 16.732C102.628 16.732 103.048 16.648 103.408 16.48C103.768 16.312 104.132 16.04 104.5 15.664V13.936ZM97.8043 8.284C98.5563 7.62 99.3883 7.128 100.3 6.808C101.22 6.48 102.204 6.316 103.252 6.316C104.004 6.316 104.68 6.44 105.28 6.688C105.888 6.928 106.4 7.268 106.816 7.708C107.24 8.14 107.564 8.656 107.788 9.256C108.012 9.856 108.124 10.512 108.124 11.224V19H106.42C106.068 19 105.8 18.952 105.616 18.856C105.44 18.76 105.292 18.56 105.172 18.256L104.908 17.572C104.596 17.836 104.296 18.068 104.008 18.268C103.72 18.468 103.42 18.64 103.108 18.784C102.804 18.92 102.476 19.02 102.124 19.084C101.78 19.156 101.396 19.192 100.972 19.192C100.404 19.192 99.8883 19.12 99.4243 18.976C98.9603 18.824 98.5643 18.604 98.2363 18.316C97.9163 18.028 97.6683 17.672 97.4923 17.248C97.3163 16.816 97.2283 16.32 97.2283 15.76C97.2283 15.312 97.3403 14.86 97.5643 14.404C97.7883 13.94 98.1763 13.52 98.7283 13.144C99.2803 12.76 100.024 12.44 100.96 12.184C101.896 11.928 103.076 11.784 104.5 11.752V11.224C104.5 10.496 104.348 9.972 104.044 9.652C103.748 9.324 103.324 9.16 102.772 9.16C102.332 9.16 101.972 9.208 101.692 9.304C101.412 9.4 101.16 9.508 100.936 9.628C100.72 9.748 100.508 9.856 100.3 9.952C100.092 10.048 99.8443 10.096 99.5563 10.096C99.3003 10.096 99.0843 10.032 98.9083 9.904C98.7323 9.776 98.5883 9.624 98.4763 9.448L97.8043 8.284ZM114.222 1.036V19H110.502V1.036H114.222Z" fill="url(#paint0_linear_260_2)"/>
<circle cx="128" cy="10" r="9" fill="url(#paint1_linear_260_2)"/>
<path d="M123.712 4.33725C126.794 4.33725 128.911 3 130.396 3C131.881 3 135 3.71509 135 9.43767C135 15.1603 130.804 16 129.171 16C121.521 16.0004 118.254 4.33725 123.712 4.33725Z" fill="url(#paint2_linear_260_2)"/>
<path d="M122.43 5.16358C122.062 5.16358 121.762 4.89308 121.762 4.56069C121.762 4.22829 122.062 3.95779 122.43 3.95779C122.799 3.95779 123.099 4.22829 123.099 4.56069C123.099 4.89308 122.799 5.16358 122.43 5.16358ZM122.43 4.35972C122.308 4.35972 122.207 4.45016 122.207 4.56069C122.207 4.67122 122.308 4.76165 122.43 4.76165C122.553 4.76165 122.653 4.67122 122.653 4.56069C122.653 4.45016 122.553 4.35972 122.43 4.35972Z" fill="#A4AFC1"/>
<path d="M131.342 5.37782H132.679V8.99519H131.342V5.37782Z" fill="#647EFF"/>
<path d="M125.104 14.6222H123.321C123.203 14.6222 123.09 14.5799 123.006 14.5045C122.923 14.4291 122.876 14.3269 122.876 14.2203V8.19133C122.876 8.08473 122.923 7.9825 123.006 7.90712C123.09 7.83174 123.203 7.7894 123.321 7.7894H125.104C125.222 7.7894 125.335 7.83174 125.419 7.90712C125.502 7.9825 125.549 8.08473 125.549 8.19133V14.2203C125.549 14.3269 125.502 14.4291 125.419 14.5045C125.335 14.5799 125.222 14.6222 125.104 14.6222ZM127.777 14.6222H125.995C125.877 14.6222 125.763 14.5799 125.68 14.5045C125.596 14.4291 125.549 14.3269 125.549 14.2203V5.77975C125.549 5.67315 125.596 5.57092 125.68 5.49555C125.763 5.42017 125.877 5.37782 125.995 5.37782H127.777C127.895 5.37782 128.009 5.42017 128.092 5.49555C128.176 5.57092 128.223 5.67315 128.223 5.77975V14.2203C128.223 14.3269 128.176 14.4291 128.092 14.5045C128.009 14.5799 127.895 14.6222 127.777 14.6222Z" fill="#F3F3F1"/>
<path d="M122.876 11.8087H125.549V13.0145H122.876V11.8087Z" fill="#647EFF"/>
<path d="M130.451 14.6222H128.668C128.55 14.6222 128.437 14.5798 128.353 14.5045C128.27 14.4291 128.223 14.3268 128.223 14.2203V8.19131C128.223 8.08471 128.27 7.98248 128.353 7.90711C128.437 7.83173 128.55 7.78938 128.668 7.78938H130.451C130.569 7.78938 130.682 7.83173 130.766 7.90711C130.849 7.98248 130.896 8.08471 130.896 8.19131V14.2203C130.896 14.3268 130.849 14.4291 130.766 14.5045C130.682 14.5798 130.569 14.6222 130.451 14.6222Z" fill="#F3F3F1"/>
<path d="M128.223 11.8087H130.896V13.0145H128.223V11.8087ZM128.668 6.98553H130.005V8.99518H128.668V6.98553Z" fill="#647EFF"/>
<path d="M129.114 14.2203V8.19131C129.114 8.08471 129.161 7.98248 129.244 7.90711C129.328 7.83173 129.441 7.78938 129.56 7.78938H128.668C128.55 7.78938 128.437 7.83173 128.353 7.90711C128.27 7.98248 128.223 8.08471 128.223 8.19131V14.2203C128.223 14.3268 128.27 14.4291 128.353 14.5045C128.437 14.5798 128.55 14.6222 128.668 14.6222H129.56C129.441 14.6222 129.328 14.5798 129.244 14.5045C129.161 14.4291 129.114 14.3268 129.114 14.2203Z" fill="#D5DBE1"/>
<path d="M131.342 5.37782H132.233V8.99519H131.342V5.37782ZM128.668 6.98554H129.559V8.99519H128.668V6.98554Z" fill="url(#paint3_linear_260_2)"/>
<path d="M123.767 14.2203V8.19133C123.767 8.08473 123.814 7.9825 123.897 7.90712C123.981 7.83174 124.094 7.7894 124.213 7.7894H123.321C123.203 7.7894 123.09 7.83174 123.006 7.90712C122.923 7.9825 122.876 8.08473 122.876 8.19133V14.2203C122.876 14.3269 122.923 14.4291 123.006 14.5045C123.09 14.5799 123.203 14.6222 123.321 14.6222H124.213C124.094 14.6222 123.981 14.5799 123.897 14.5045C123.814 14.4291 123.767 14.3269 123.767 14.2203ZM126.44 14.2203V5.77975C126.44 5.67315 126.487 5.57092 126.571 5.49555C126.655 5.42017 126.768 5.37782 126.886 5.37782H125.995C125.877 5.37782 125.763 5.42017 125.68 5.49555C125.596 5.57092 125.549 5.67315 125.549 5.77975V14.2203C125.549 14.3269 125.596 14.4291 125.68 14.5045C125.763 14.5799 125.877 14.6222 125.995 14.6222H126.886C126.768 14.6222 126.655 14.5799 126.571 14.5045C126.487 14.4291 126.44 14.3269 126.44 14.2203Z" fill="#D5DBE1"/>
<path d="M122.876 11.8087H123.767V13.0145H122.876V11.8087ZM128.223 11.8087H129.114V13.0145H128.223V11.8087Z" fill="url(#paint4_linear_260_2)"/>
<path d="M133.124 9.19613H128.223C128.164 9.19613 128.107 9.17496 128.065 9.13727C128.023 9.09958 128 9.04847 128 8.99517C128 8.94187 128.023 8.89075 128.065 8.85307C128.107 8.81538 128.164 8.7942 128.223 8.7942H133.124C133.183 8.7942 133.24 8.81538 133.282 8.85307C133.323 8.89075 133.347 8.94187 133.347 8.99517C133.347 9.04847 133.323 9.09958 133.282 9.13727C133.24 9.17496 133.183 9.19613 133.124 9.19613Z" fill="black"/>
<path d="M132.679 9.19613C132.619 9.19613 132.563 9.17495 132.521 9.13727C132.479 9.09958 132.456 9.04846 132.456 8.99516V5.57876H131.565V8.99516C131.565 9.04846 131.541 9.09958 131.499 9.13727C131.458 9.17495 131.401 9.19613 131.342 9.19613C131.283 9.19613 131.226 9.17495 131.184 9.13727C131.143 9.09958 131.119 9.04846 131.119 8.99516V5.3778C131.119 5.3245 131.143 5.27338 131.184 5.2357C131.226 5.19801 131.283 5.17683 131.342 5.17683H132.679C132.738 5.17683 132.794 5.19801 132.836 5.2357C132.878 5.27338 132.901 5.3245 132.901 5.3778V8.99516C132.901 9.04846 132.878 9.09958 132.836 9.13727C132.794 9.17495 132.738 9.19613 132.679 9.19613ZM130.005 9.19613C129.946 9.19613 129.889 9.17495 129.848 9.13727C129.806 9.09958 129.782 9.04846 129.782 8.99516V7.18648H128.891V8.99516C128.891 9.04846 128.868 9.09958 128.826 9.13727C128.784 9.17495 128.727 9.19613 128.668 9.19613C128.609 9.19613 128.553 9.17495 128.511 9.13727C128.469 9.09958 128.446 9.04846 128.446 8.99516V6.98552C128.446 6.93222 128.469 6.8811 128.511 6.84341C128.553 6.80572 128.609 6.78455 128.668 6.78455H130.005C130.064 6.78455 130.121 6.80572 130.163 6.84341C130.204 6.8811 130.228 6.93222 130.228 6.98552V8.99516C130.228 9.04846 130.204 9.09958 130.163 9.13727C130.121 9.17495 130.064 9.19613 130.005 9.19613ZM125.104 14.8231H123.321C122.953 14.8231 122.653 14.5526 122.653 14.2202V8.1913C122.653 7.85891 122.953 7.58841 123.321 7.58841H125.104C125.472 7.58841 125.772 7.85891 125.772 8.1913V14.2202C125.772 14.5526 125.472 14.8231 125.104 14.8231ZM123.321 7.99034C123.199 7.99034 123.099 8.08077 123.099 8.1913V14.2202C123.099 14.3308 123.199 14.4212 123.321 14.4212H125.104C125.226 14.4212 125.327 14.3308 125.327 14.2202V8.1913C125.327 8.08077 125.226 7.99034 125.104 7.99034H123.321Z" fill="black"/>
<path d="M127.777 14.8231H125.995C125.626 14.8231 125.327 14.5526 125.327 14.2202V5.77973C125.327 5.44733 125.626 5.17683 125.995 5.17683H127.777C128.146 5.17683 128.446 5.44733 128.446 5.77973C128.446 5.83303 128.422 5.88414 128.38 5.92183C128.339 5.95952 128.282 5.98069 128.223 5.98069C128.164 5.98069 128.107 5.95952 128.065 5.92183C128.023 5.88414 128 5.83303 128 5.77973C128 5.6692 127.9 5.57876 127.777 5.57876H125.995C125.872 5.57876 125.772 5.6692 125.772 5.77973V14.2202C125.772 14.3308 125.872 14.4212 125.995 14.4212H127.777C127.9 14.4212 128 14.3308 128 14.2202V10.2009C128 10.1477 128.023 10.0965 128.065 10.0588C128.107 10.0212 128.164 9.99998 128.223 9.99998C128.282 9.99998 128.339 10.0212 128.38 10.0588C128.422 10.0965 128.446 10.1477 128.446 10.2009V14.2202C128.446 14.5526 128.146 14.8231 127.777 14.8231Z" fill="black"/>
<path d="M130.451 14.8232H128.668C128.3 14.8232 128 14.5527 128 14.2203V11.4068C128 11.3535 128.023 11.3023 128.065 11.2646C128.107 11.227 128.164 11.2058 128.223 11.2058C128.282 11.2058 128.339 11.227 128.38 11.2646C128.422 11.3023 128.446 11.3535 128.446 11.4068V14.2203C128.446 14.3308 128.546 14.4212 128.668 14.4212H130.451C130.573 14.4212 130.673 14.3308 130.673 14.2203V10.201C130.673 10.1477 130.697 10.0965 130.739 10.0589C130.781 10.0212 130.837 10 130.896 10C130.955 10 131.012 10.0212 131.054 10.0589C131.096 10.0965 131.119 10.1477 131.119 10.201V14.2203C131.119 14.5527 130.819 14.8232 130.451 14.8232ZM125.549 13.2154H122.876C122.817 13.2154 122.76 13.1943 122.718 13.1566C122.677 13.1189 122.653 13.0678 122.653 13.0145C122.653 12.9612 122.677 12.9101 122.718 12.8724C122.76 12.8347 122.817 12.8135 122.876 12.8135H125.549C125.608 12.8135 125.665 12.8347 125.707 12.8724C125.749 12.9101 125.772 12.9612 125.772 13.0145C125.772 13.0678 125.749 13.1189 125.707 13.1566C125.665 13.1943 125.608 13.2154 125.549 13.2154ZM125.549 12.0096H122.876C122.817 12.0096 122.76 11.9885 122.718 11.9508C122.677 11.9131 122.653 11.862 122.653 11.8087C122.653 11.7554 122.677 11.7043 122.718 11.6666C122.76 11.6289 122.817 11.6077 122.876 11.6077H125.549C125.608 11.6077 125.665 11.6289 125.707 11.6666C125.749 11.7043 125.772 11.7554 125.772 11.8087C125.772 11.862 125.749 11.9131 125.707 11.9508C125.665 11.9885 125.608 12.0096 125.549 12.0096Z" fill="black"/>
<path d="M130.896 12.0096H128.223C128.164 12.0096 128.107 11.9885 128.065 11.9508C128.023 11.9131 128 11.862 128 11.8087C128 11.7554 128.023 11.7043 128.065 11.6666C128.107 11.6289 128.164 11.6077 128.223 11.6077H130.896C130.955 11.6077 131.012 11.6289 131.054 11.6666C131.096 11.7043 131.119 11.7554 131.119 11.8087C131.119 11.862 131.096 11.9131 131.054 11.9508C131.012 11.9885 130.955 12.0096 130.896 12.0096ZM126.886 13.2154C126.827 13.2154 126.77 13.1943 126.729 13.1566C126.687 13.1189 126.663 13.0678 126.663 13.0145V6.58359C126.663 6.53029 126.687 6.47918 126.729 6.44149C126.77 6.4038 126.827 6.38263 126.886 6.38263C126.945 6.38263 127.002 6.4038 127.044 6.44149C127.085 6.47918 127.109 6.53029 127.109 6.58359V13.0145C127.109 13.0678 127.085 13.1189 127.044 13.1566C127.002 13.1943 126.945 13.2154 126.886 13.2154ZM130.896 13.2154H128.223C128.164 13.2154 128.107 13.1943 128.065 13.1566C128.023 13.1189 128 13.0678 128 13.0145C128 12.9612 128.023 12.91 128.065 12.8724C128.107 12.8347 128.164 12.8135 128.223 12.8135H130.896C130.955 12.8135 131.012 12.8347 131.054 12.8724C131.096 12.91 131.119 12.9612 131.119 13.0145C131.119 13.0678 131.096 13.1189 131.054 13.1566C131.012 13.1943 130.955 13.2154 130.896 13.2154Z" fill="black"/>
</g>
<defs>
<linearGradient id="paint0_linear_260_2" x1="114.896" y1="27.1361" x2="87.2648" y2="-39.9985" gradientUnits="userSpaceOnUse">
<stop offset="0.333695" stop-color="#001C57"/>
<stop offset="1" stop-color="#001B3A"/>
</linearGradient>
<linearGradient id="paint1_linear_260_2" x1="121.5" y1="3" x2="135" y2="18" gradientUnits="userSpaceOnUse">
<stop stop-color="#001C57"/>
<stop offset="0.370416" stop-color="#162E6F"/>
<stop offset="1" stop-color="#3C4C99"/>
</linearGradient>
<linearGradient id="paint2_linear_260_2" x1="128" y1="3" x2="128" y2="16" gradientUnits="userSpaceOnUse">
<stop offset="0.26" stop-color="#22336D"/>
</linearGradient>
<linearGradient id="paint3_linear_260_2" x1="130.451" y1="5.37782" x2="130.451" y2="8.99519" gradientUnits="userSpaceOnUse">
<stop stop-color="#00B871"/>
<stop offset="1" stop-color="#0B5200"/>
</linearGradient>
<linearGradient id="paint4_linear_260_2" x1="125.995" y1="11.8087" x2="125.995" y2="13.0145" gradientUnits="userSpaceOnUse">
<stop stop-color="#00B871"/>
<stop offset="1" stop-color="#0B5200"/>
</linearGradient>
<clipPath id="clip0_260_2">
<rect width="139" height="20" fill="white"/>
</clipPath>
</defs>
</svg>
